<?xml version="1.0" encoding="utf-8"?>
<!-- Generator: Adobe Illustrator 22.0.1, SVG Export Plug-In . SVG Version: 6.00 Build 0)  -->
<svg version="1.1" xmlns="http://www.w3.org/2000/svg" xmlns:xlink="http://www.w3.org/1999/xlink" x="0px" y="0px"
	 viewBox="0 0 50.8 50.8" style="enable-background:new 0 0 50.8 50.8;" xml:space="preserve">
<style type="text/css">
	.st0{fill:#F3C75F;}
	.st1{fill:url(#);}
	.st2{fill:#334C5E;}
	.st3{fill:#FFFFFF;}
	.st4{fill:#FDEEC9;}
</style>
<g id="Направляющие_для_монтажной_области">
</g>
<g id="Слой_1">
	<g>
		<g>
			<polygon class="st4" points="25.5,27.1 6.1,7.3 7.9,5.8 25.3,23.8 43.2,6.1 44.8,7.4 			"/>
			<polygon class="st4" points="11.3,11.3 9.8,9.7 20.3,0.2 21.7,1.8 			"/>
			<polygon class="st4" points="39.7,11.7 29.2,2.1 30.6,0.5 41.1,10.1 			"/>
			<polygon class="st4" points="16.5,5 12.8,1.6 14.3,0 18,3.5 			"/>
			<polygon class="st4" points="34.3,5.4 32.9,3.8 36.6,0.4 38,1.9 			"/>
			<polygon class="st4" points="17.4,17.1 15.9,15.5 23,9 24.4,10.5 			"/>
			<polygon class="st4" points="33.5,17.1 26.5,10.6 27.9,9 35,15.6 			"/>
		</g>
		<g>
			<polygon class="st4" points="25.5,24.2 5.9,43.3 7.4,44.8 25.5,27.1 43.6,44.8 45.1,43.3 			"/>
			<polygon class="st4" points="11.3,39.5 9.8,41.1 20.2,50.7 21.6,49.2 			"/>
			<polygon class="st4" points="39.7,39.5 29.1,48.9 30.5,50.5 41.1,41.1 			"/>
			<polygon class="st4" points="16.5,45.8 12.7,49.3 14.2,50.8 17.9,47.4 			"/>
			<polygon class="st4" points="34.3,45.7 32.8,47.2 36.4,50.7 37.9,49.2 			"/>
			<polygon class="st4" points="17.5,33.8 16,35.3 23,42 24.4,40.4 			"/>
			<polygon class="st4" points="33.6,33.9 26.5,40.4 27.9,42 35,35.5 			"/>
		</g>
		<g>
			<polygon class="st4" points="27.1,25.5 7.4,44.9 5.9,43.4 23.7,25.5 6.3,7.2 7.9,5.7 			"/>
			<polygon class="st4" points="11.3,39.6 9.7,41 0.2,30.5 1.8,29.1 			"/>
			<polygon class="st4" points="11.6,11.1 2.1,21.6 0.5,20.2 10.1,9.7 			"/>
			<polygon class="st4" points="5,34.3 1.6,38 0,36.5 3.5,32.8 			"/>
			<polygon class="st4" points="5.4,16.5 3.8,18 0.4,14.2 1.9,12.8 			"/>
			<polygon class="st4" points="17.1,33.4 15.5,34.9 8.9,27.9 10.5,26.4 			"/>
			<polygon class="st4" points="17.1,17.3 10.6,24.3 9,22.9 15.5,15.8 			"/>
		</g>
		<g>
			<polygon class="st4" points="23.7,25.5 43.6,44.8 45,43.3 27.1,25.5 44.8,7.4 43.2,5.9 			"/>
			<polygon class="st4" points="39.5,39.8 41,41.2 50.7,30.8 49.1,29.4 			"/>
			<polygon class="st4" points="39.5,11.3 48.9,21.9 50.5,20.5 41.1,9.9 			"/>
			<polygon class="st4" points="45.8,34.5 49.2,38.3 50.8,36.8 47.4,33.1 			"/>
			<polygon class="st4" points="45.7,16.7 47.2,18.2 50.7,14.5 49.2,13.1 			"/>
			<polygon class="st4" points="33.8,33.5 35.3,35 41.9,28 40.4,26.6 			"/>
			<polygon class="st4" points="33.9,17.4 40.4,24.5 42,23.1 35.5,15.9 			"/>
		</g>
	</g>
</g>
</svg>
