<?xml version="1.0" encoding="utf-8"?>
<!-- Generator: Adobe Illustrator 22.0.1, SVG Export Plug-In . SVG Version: 6.00 Build 0)  -->
<svg version="1.1" xmlns="http://www.w3.org/2000/svg" xmlns:xlink="http://www.w3.org/1999/xlink" x="0px" y="0px"
	 viewBox="0 0 51 25.5" style="enable-background:new 0 0 51 25.5;" xml:space="preserve">
<style type="text/css">
	.st0{fill:#F3C75F;}
	.st1{fill:url(#);}
	.st2{fill:#334C5E;}
	.st3{fill:#FFFFFF;}
	.st4{fill:#FDEEC9;}
</style>
<g id="Направляющие_для_монтажной_области">
</g>
<g id="Слой_1">
	<g>
		<g>
			<polygon class="st2" points="24.2,0.1 6.1,17.8 7.6,19.4 25.6,1.7 43.7,19.4 45.2,17.8 27,0.1 			"/>
			<polygon class="st2" points="11.4,14.1 9.9,15.6 20.3,25.3 21.8,23.7 			"/>
			<polygon class="st2" points="39.8,14 29.2,23.5 30.6,25.1 41.2,15.6 			"/>
			<polygon class="st2" points="16.6,20.4 12.9,23.8 14.3,25.4 18,22 			"/>
			<polygon class="st2" points="34.4,20.2 32.9,21.8 36.6,25.3 38,23.8 			"/>
			<polygon class="st2" points="17.6,8.3 16.1,9.9 23.1,16.5 24.6,15 			"/>
			<polygon class="st2" points="33.7,8.5 26.6,15 28,16.5 35.2,10.1 			"/>
		</g>
		<g>
			<polygon class="st2" points="27.2,0 7.5,19.5 6,18 23.8,0.1 			"/>
			<polygon class="st2" points="11.4,14.2 9.8,15.6 0.3,5.1 1.9,3.7 			"/>
			<polygon class="st2" points="5.1,8.9 1.7,12.6 0.1,11.1 3.6,7.4 			"/>
			<polygon class="st2" points="17.2,8 15.6,9.5 9.1,2.4 10.6,1 			"/>
		</g>
		<g>
			<polygon class="st2" points="23.8,0.1 43.7,19.4 45.1,17.8 27.3,0 			"/>
			<polygon class="st2" points="39.6,14.3 41.1,15.8 50.8,5.4 49.2,3.9 			"/>
			<polygon class="st2" points="45.9,9.1 49.3,12.8 50.9,11.4 47.5,7.7 			"/>
			<polygon class="st2" points="33.9,8.1 35.4,9.6 42.1,2.6 40.5,1.1 			"/>
		</g>
	</g>
</g>
</svg>
