<svg xmlns="http://www.w3.org/2000/svg" width="359" height="94" viewBox="0 0 359 94">
    <g fill="none" fill-rule="evenodd">
        <path fill="#3A3737" d="M129.661 27.05v-1.87c0-3.285 0-6.608-.076-9.93h-5.843l-.84 4.888h-2.216l.306-6.798h20.929l.305 6.798h-2.215l-.84-4.889h-5.843c-.077 3.247-.077 6.57-.077 9.93v1.871c0 3.285 0 6.57.077 9.854l3.895.42v1.566h-11.534v-1.566l3.896-.42c.076-3.246.076-6.53.076-9.854zm20.755 9.816c1.299 0 2.024-.459 4.201-1.986v-5.882c-1.337.382-2.711.84-3.513 1.146-3.323 1.298-3.743 2.75-3.743 3.895 0 2.025 1.298 2.827 3.055 2.827zm7.715 2.406c-1.833 0-3.132-1.146-3.438-2.941-2.1 2.062-3.36 3.055-5.614 3.055-2.788 0-5.117-1.604-5.117-4.774 0-2.177 1.184-3.895 6.34-5.767a39.636 39.636 0 0 1 4.315-1.26v-.955c0-3.704-1.07-4.62-3.59-4.62-.573 0-1.26.037-2.062.228l-.726 2.483c-.344 1.184-.955 1.833-1.986 1.833-1.07 0-1.68-.573-1.795-1.566.726-2.902 3.552-4.736 7.448-4.736 4.01 0 5.92 1.834 5.92 6.646v8.134c0 1.643.534 2.254 1.374 2.254.65 0 1.07-.344 1.49-.84l.763.84c-.916 1.49-1.986 1.986-3.322 1.986zm5.898-.382v-1.375l2.674-.535c.038-1.871.076-4.354.076-6.11v-2.101c0-1.719-.038-4.24-.076-6.149l-2.674-.496v-1.375h8.708v1.375l-2.865.573V33.81l9.625-10.235v-.878l-2.903-.573v-1.375h8.708v1.375l-2.674.534a347.52 347.52 0 0 0-.076 6.111v2.1c0 1.757.038 4.24.076 6.111l2.674.535v1.375h-8.708v-1.375l2.903-.573V25.79l-9.625 10.274v.878l2.865.573v1.375h-8.708zm11-21.54c-4.049 0-6.379-2.75-6.379-5.881.306-.65.764-1.07 1.604-1.07.955 0 1.834.688 1.834 2.483 0 .916-.039 1.489-.115 2.062.802.573 2.062.84 3.055.84.993 0 2.254-.267 3.056-.84-.077-.573-.115-1.146-.115-2.062 0-1.795.878-2.483 1.833-2.483.84 0 1.299.42 1.604 1.07 0 3.131-2.33 5.88-6.378 5.88zm25.299 20.012l-6.684-15.085.344 8.593v6.034l2.597.61v1.376h-7.065v-1.375l2.673-.573V22.735l-2.673-.611v-1.375h6.683l5.843 13.29 5.767-13.29h6.684v1.375l-2.674.534a347.52 347.52 0 0 0-.076 6.111v2.1c0 1.757.038 4.202.076 6.111l2.674.535v1.375h-8.746v-1.375l2.903-.535v-6.11l.152-8.67-6.569 15.162h-1.91zm34.924 1.528v-1.375l2.673-.497c.038-1.91.076-4.392.076-6.148v-2.101c0-1.719-.038-4.24-.076-6.149l-2.673-.496v-1.375h8.745v1.375l-2.673.534a347.52 347.52 0 0 0-.076 6.111v2.1c0 1.757.038 4.202.076 6.111l2.673.535v1.375h-8.745zm-16.537 0v-1.375l2.673-.497c.038-1.91.077-4.392.077-6.148v-2.101c0-1.719-.038-4.24-.077-6.149l-2.673-.496v-1.375h8.707v1.375l-2.635.534a228.788 228.788 0 0 0-.076 5.194c.84-.076 1.642-.114 2.559-.114 4.85 0 6.989 2.368 6.989 5.5 0 3.131-2.445 5.652-7.295 5.652h-8.25zm5.996-8.02c0 1.833.038 4.506.076 6.416h1.719c2.826 0 4.392-1.413 4.392-4.01 0-2.674-1.337-3.743-4.468-3.743-.612 0-1.146.038-1.72.076v1.26zm38.934-.802c0-4.889-1.986-7.639-4.774-7.639-1.184 0-2.674.497-4.621 2.1v10.733c1.413 1.374 2.788 1.947 4.2 1.947 2.865 0 5.195-2.215 5.195-7.141zm-12.641 9.891V29.036c0-2.1-.039-3.246-.115-4.773l-3.017-.344v-1.337l5.347-2.33.572.382.23 2.445c1.795-1.948 3.742-2.827 5.766-2.827 4.087 0 7.295 3.59 7.295 9.51 0 5.881-3.4 9.624-7.867 9.624-1.757 0-3.476-.61-5.08-2.52v3.055c0 2.024.038 4.086.077 6.187l3.475.573v1.336h-9.815v-1.336l3.055-.535c.038-2.1.077-4.125.077-6.187zm29.233-17.95c-3.246 0-5.614 2.597-5.614 7.486 0 4.812 2.52 7.409 6.11 7.409 2.177 0 4.087-1.031 5.27-2.903l.955.497c-1.069 3.17-3.513 4.888-7.103 4.888-5.232 0-8.593-3.628-8.593-9.51 0-6.034 4.24-9.624 8.822-9.624 3.437 0 6.263 2.14 6.76 4.965-.191.993-.802 1.452-1.757 1.452-1.298 0-1.833-.764-2.1-1.834l-.688-2.52a6.754 6.754 0 0 0-2.062-.306zm10.596 16.88v-1.374l2.673-.497c.038-1.91.077-4.392.077-6.148v-2.101c0-1.719-.039-4.24-.077-6.149l-2.673-.496v-1.375h8.707v1.375l-2.635.534a355.25 355.25 0 0 0-.076 6.302h1.337c1.795 0 2.711-.726 3.666-3.666 1.184-3.361 2.444-4.85 4.888-5.042 1.184.306 1.68.993 1.68 1.948-.037 1.146-.725 1.872-2.405 1.872-.726 0-1.222-.039-1.795-.115a14.437 14.437 0 0 0-.802 1.948c-.688 2.1-1.528 3.208-2.98 3.78 2.56.535 3.935 1.757 4.813 4.202l1.107 3.17 2.788.458v1.375c-.725.19-1.642.42-2.367.42-2.063 0-2.98-.459-3.629-2.406l-1.298-3.972c-.611-1.757-1.528-2.368-3.475-2.368h-1.528c0 2.024.038 4.545.076 6.416l2.635.535v1.375h-8.707zm21.404 0v-1.374l2.673-.535c.039-1.871.077-4.354.077-6.11v-2.101c0-1.719-.038-4.24-.077-6.149l-2.673-.496v-1.375h8.708v1.375l-2.865.573V33.81l9.624-10.235v-.878l-2.902-.573v-1.375h8.707v1.375l-2.673.534a347.52 347.52 0 0 0-.076 6.111v2.1c0 1.757.038 4.24.076 6.111l2.673.535v1.375h-8.707v-1.375l2.902-.573V25.79l-9.624 10.274v.878l2.865.573v1.375h-8.708zm25.49 0v-1.374l2.674-.535c.038-1.871.076-4.354.076-6.11v-2.101c0-1.719-.038-4.24-.076-6.149l-2.673-.496v-1.375h8.707v1.375l-2.864.573V33.81l9.624-10.235v-.878l-2.903-.573v-1.375H359v1.375l-2.673.534a347.52 347.52 0 0 0-.077 6.111v2.1c0 1.757.038 4.24.077 6.111l2.673.535v1.375h-8.708v-1.375l2.903-.573V25.79l-9.624 10.274v.878l2.864.573v1.375h-8.707zm11-21.54c-4.049 0-6.378-2.749-6.378-5.88.305-.65.764-1.07 1.604-1.07.955 0 1.833.688 1.833 2.483 0 .916-.038 1.489-.115 2.062.802.573 2.063.84 3.056.84.993 0 2.253-.267 3.055-.84-.076-.573-.115-1.146-.115-2.062 0-1.795.879-2.483 1.833-2.483.84 0 1.299.42 1.605 1.07 0 3.131-2.33 5.88-6.378 5.88zM121.603 77.082v-1.375l2.673-.497c.038-1.91.077-4.392.077-6.148v-2.1c0-1.72-.039-4.24-.077-6.15l-2.673-.496V58.94h8.707v1.375l-2.635.535a355.25 355.25 0 0 0-.076 6.301h1.337c1.795 0 2.711-.726 3.666-3.666 1.184-3.361 2.444-4.85 4.888-5.042 1.184.306 1.68.993 1.68 1.948-.037 1.146-.725 1.872-2.405 1.872-.726 0-1.222-.039-1.795-.115a14.437 14.437 0 0 0-.802 1.948c-.688 2.1-1.528 3.208-2.98 3.78 2.56.535 3.935 1.757 4.813 4.202l1.107 3.17 2.788.458v1.375c-.725.19-1.642.42-2.367.42-2.063 0-2.98-.458-3.629-2.406l-1.298-3.972c-.611-1.757-1.528-2.368-3.475-2.368h-1.528c0 2.024.038 4.545.076 6.416l2.635.535v1.375h-8.707zm29.424.496c-4.468 0-8.746-3.17-8.746-9.471 0-6.34 4.316-9.663 8.746-9.663 4.392 0 8.784 3.323 8.784 9.663 0 6.301-4.354 9.471-8.784 9.471zm0-1.718c3.285 0 5.156-2.636 5.156-7.753 0-5.156-1.871-7.906-5.156-7.906-3.322 0-5.117 2.75-5.117 7.906 0 5.117 1.795 7.753 5.117 7.753zm13.766 1.718c-1.566 0-2.559-.84-2.559-2.673.42-.917.917-1.451 1.757-1.451.993 0 1.68.496 2.368 1.222.993-1.031 1.528-2.1 2.1-4.049.688-2.215 1.223-5.766 1.413-9.624l-3.246-.687V58.94h15.277v1.375l-2.674.535a347.52 347.52 0 0 0-.076 6.11v2.1c0 1.757.038 4.202.076 6.111l2.674.535v1.375h-8.708v-1.375l2.673-.497c.039-1.91.077-4.392.077-6.148v-2.1c0-1.796-.038-4.431-.077-6.379h-4.048c-.229 4.24-.764 8.135-1.642 11-1.528 4.773-3.552 5.995-5.385 5.995zm22.474 0c-1.566 0-2.56-.84-2.56-2.673.42-.917.917-1.451 1.758-1.451.993 0 1.68.496 2.367 1.222.993-1.031 1.528-2.1 2.1-4.049.688-2.215 1.223-5.766 1.414-9.624l-3.246-.687V58.94h15.276v1.375l-2.673.535a347.52 347.52 0 0 0-.077 6.11v2.1c0 1.757.039 4.202.077 6.111l2.673.535v1.375h-8.707v-1.375l2.673-.497c.038-1.91.076-4.392.076-6.148v-2.1c0-1.796-.038-4.431-.076-6.379h-4.048c-.23 4.24-.764 8.135-1.643 11-1.527 4.773-3.551 5.995-5.384 5.995zm30.188-19.134c3.971 0 7.103 2.712 7.103 7.333 0 .879-.114 1.642-.267 2.139h-12.183c.076 4.697 2.52 7.18 6.187 7.18 2.444 0 3.934-1.07 5.308-2.674l.917.726c-1.413 2.712-3.857 4.43-7.333 4.43-5.155 0-8.516-3.552-8.516-9.395s4.01-9.739 8.784-9.739zm-.23 1.757c-2.138 0-4.62 1.68-5.04 6.11h6.95c1.833 0 2.253-.878 2.253-1.985 0-2.177-1.795-4.125-4.163-4.125zm14.53.115V58.94h14.742v1.375l-2.75.535a347.52 347.52 0 0 0-.076 6.11v2.1c0 1.834.038 4.469.076 6.379h3.132l-.23 7.37h-1.756l-.878-5.728h-13.902l-.878 5.728h-1.795l-.191-7.37h1.947c2.788-4.087 4.774-8.632 5.5-14.475l-2.94-.65zm8.708 6.645c0-1.795-.038-4.43-.077-6.378h-3.704c-.573 5.614-2.444 10.54-4.774 14.857h8.478c.039-1.91.077-4.545.077-6.378v-2.1zm18.692 10.12v-1.374l2.826-.535c.039-1.833.077-4.277.077-6.301h-1.68c-1.948 0-2.903.496-3.476 2.253l-1.298 3.972c-.65 1.948-1.566 2.406-3.629 2.406-.725 0-1.642-.23-2.367-.42v-1.375l2.826-.458 1.07-3.17c.84-2.445 2.214-3.59 4.811-4.087-1.451-.649-2.291-1.795-2.979-3.895a14.437 14.437 0 0 0-.802-1.948c-.573.076-1.07.115-1.795.115-1.68 0-2.368-.726-2.406-1.872 0-.955.459-1.642 1.642-1.948 2.445.191 3.743 1.68 4.889 5.042.993 2.94 1.91 3.78 3.666 3.78h1.528c0-2.062-.038-4.544-.077-6.415l-2.826-.535V58.94h8.708v1.375l-2.826.573a363.805 363.805 0 0 0-.077 6.378h1.528c1.795 0 2.673-.84 3.666-3.781 1.146-3.361 2.445-4.85 4.889-5.042 1.184.306 1.642.993 1.642 1.948 0 1.146-.726 1.872-2.406 1.872-.726 0-1.222-.039-1.795-.115a10.905 10.905 0 0 0-.764 1.948c-.725 2.138-1.527 3.246-3.017 3.895 2.597.497 3.972 1.642 4.85 4.087l1.108 3.17 2.788.458v1.375c-.726.19-1.68.42-2.406.42-2.024 0-2.94-.458-3.59-2.406l-1.299-3.972c-.61-1.757-1.565-2.253-3.513-2.253h-1.68c0 2.024.038 4.43.076 6.263l2.826.573v1.375h-8.708z"/>
        <path fill="#344D5E" d="M0 19.98v24.594h20.241zM.27 16.064L4.333 21l6.353-7.017-4.224-4.801L8.486 7.4l4.02 4.57 3.907-4.313 2 1.809L6.064 23.105l5.434 6.602 8.13-9.21 2.023 1.785-8.416 9.534 8.896 10.81 9.248-10.674-8.462-9.582 2.024-1.785 8.22 9.31 5.386-6.22L26.157 9.99l2-1.812 3.87 4.276 3.983-4.528 2.026 1.78-4.188 4.76 6.479 7.157 3.407-3.934V-.001H-.002v15.747zM24.012 44.575h19.721V21.81zM67.148 33.533l-6.26-4.355-.947 9.437zM67.433 5.905l-3.935-2.692-.593 5.91zM70.111 20.27l-8.546 6.091 7.93 5.517 8.664-6.11zM69.775 4.24L75.05.494H64.297zM76.71 12.252l-6.904-4.724-6.648 4.724 6.92 4.728zM67.738 18.648l-5.42-3.702-.817 8.148zM80.882 43.09l-11.38-7.918-9.918 6.993-.242 2.41H81.05zM71.85 33.517l8.63 6.005-1.268-11.197zM78.724 0l5.042 44.575h8.852V0zM56.927 41.64l.097-.969L61.11 0H48.885v44.575h7.747zM72.148 5.864l4.903 3.355-.716-6.33zM72.451 18.601l6.136 4.191-.897-7.926zM75.946 84.315h8.38v-8.653l-4.784 4.267-5.83-7.126 4.333-7.942-7.312-7.808-7.163 7.787 4.508 7.968-5.924 6.95-5.035-4.216v8.773h8.675l4.892-6.068z"/>
        <path fill="#344D5E" d="M87.024 87.013h-12.31l-3.954-4.56-3.676 4.56H54.421V69.765l7.414 6.207 2.965-3.477-4.545-8.035 10.46-11.37 10.63 11.35-4.396 8.06 2.898 3.544 7.177-6.403v17.372zm-38.14 6.34h43.733V48.78H48.884v44.573zM6.103 69.826l4.319 2.976 4.368-3.087-3.973-6.784zM36.383 65.194l3.877-2.74-4.063-5.93-3.907 5.851z"/>
        <path fill="#344D5E" d="M41.785 64.679l-5.38 3.804-5.612-3.865-8.439 12.639 9.403 16.097h11.976V67.42zM16.157 72.05l-5.714 4.04-5.862-4.037-4.58 6.7v14.6h28.632z"/>
        <path fill="#344D5E" d="M10.993 57.895l9.834 16.792 15.342-22.975 7.565 11.036V48.78H0v25.195z"/>
    </g>
</svg>
