<svg xmlns="http://www.w3.org/2000/svg" width="35" height="21" viewBox="0 0 35 21">
    <path fill="#FFF" fill-rule="evenodd" d="M6.539 21H0v-.855a11.19 11.19 0 0 1 2.12-.708L9.573 0h.854l7.452 19.437c.393.078.78.167 1.163.265a4.13 4.13 0 0 1 1.075.443V21h-7.54v-.855a12.47 12.47 0 0 1 1.208-.413c.412-.118.815-.217 1.208-.295l-2.003-5.398h-7.04l-1.943 5.398c.824.118 1.669.354 2.533.708V21zm0-8.494h5.95L10.16 6.253l-.56-2.537h-.058l-.737 2.596-2.267 6.194zM25.949 21h-4.36v-.57a7.46 7.46 0 0 1 1.414-.472L27.97 7h.569l4.968 12.958c.262.052.52.111.775.177.256.065.494.164.717.295V21h-5.027v-.57c.262-.105.53-.197.805-.276.275-.078.544-.144.805-.196l-1.335-3.598h-4.693l-1.296 3.598c.55.079 1.113.236 1.69.472V21zm0-5.663h3.965l-1.55-4.168-.374-1.691h-.04l-.49 1.73-1.512 4.13z"/>
</svg>
