<svg xmlns="http://www.w3.org/2000/svg" width="11" height="24" viewBox="0 0 11 24">
    <path fill="none" fill-rule="evenodd" stroke="#344D5E" d="M8.01 22.549c-1.601.773-3.72-.208-4.698-1.424-1.338-1.661-2.133-4.107-2.459-6.23-.48-3.123-.128-6.82 1.048-9.912C2.731 2.797 4.448.83 6.863.554c.893-.101 1.578.06 2.227.669.9.846.513 1.46.017 2.528-.373.798-.683 1.684-1.133 2.445-.838 1.421-1.955.36-3.025 1.123-.673.482-.774 1.96-.882 2.689a12.126 12.126 0 0 0 .1 4.254c.164.79.371 2.123 1.223 2.389 1.312.408 2.694-1.085 3.37.604.35.874.568 1.838.824 2.749.396 1.407-.161 1.863-1.574 2.545-1.057.51 1.056-.51 0 0"/>
</svg>
