<svg xmlns="http://www.w3.org/2000/svg" width="26" height="26" viewBox="0 0 26 26">
    <g fill="#344D5E" fill-rule="nonzero" stroke="#344D5E" stroke-width=".2">
        <path d="M13 1C6.383 1 1 6.383 1 13s5.383 12 12 12 12-5.383 12-12S19.617 1 13 1zm0 23.15C6.851 24.15 1.85 19.15 1.85 13S6.85 1.85 13 1.85 24.15 6.85 24.15 13 19.15 24.15 13 24.15z"/>
        <path d="M14.018 12.983a.315.315 0 0 1-.066-.14v-7.42c0-.234-.213-.423-.476-.423S13 5.189 13 5.422v7.421c0 .254.141.557.343.736l4.844 4.297a.509.509 0 0 0 .337.124.509.509 0 0 0 .337-.124.39.39 0 0 0 0-.598l-4.843-4.295z"/>
    </g>
</svg>
