<svg xmlns="http://www.w3.org/2000/svg" width="23" height="14" viewBox="0 0 23 14">
    <path fill="#FFF" fill-rule="evenodd" d="M22.83 1.075c-.287-.25-1.39-.24-2.485-.235-1.118.007-2.228.013-2.485.118-.237.097-.772 1.437-1.467 2.817-.786 1.562-1.757 3.063-2.371 3.054-.796-.013-.612-2.58-.565-4.462.031-1.25-.164-1.64-.34-1.762-.424-.296-1.58-.587-1.58-.587S8.08-.254 7.585 1.31c.657.09 1.793-.129 1.355 4.697-.021.234-.53 2.223-2.146-.47C6.394 4.873 4.844.857 4.31.84 2.517.789.759.712.131 1.075c-.572.33.775 3.108 3.05 6.81 1.86 3.028 3.83 5.394 7.227 5.988.635.067 2.307.146 2.823-.117.36-.182-.077-2.808 1.129-3.052.543-.11 2.604 2.727 3.389 3.052.474.198 1.523.27 2.596.235 1.161-.039 2.47.106 2.597-.704.284-1.811-3.5-4.165-3.613-5.285-.082-.802 1.384-2.282 2.146-3.405.928-1.368 1.933-3.015 1.355-3.522"/>
</svg>
